<svg width="36" height="42" viewBox="0 0 36 42" fill="none" xmlns="http://www.w3.org/2000/svg">
<path d="M19.1007 35.3757C18.8729 36.0611 18.6451 36.0611 18.4195 35.3757L15.1053 25.8051L12.514 18.6299L16.8927 6.62648C17.1205 5.94113 17.3483 5.94113 17.574 6.62648L20.8881 16.1971L23.4794 23.3723L19.1007 35.3757ZM35.5444 34.5758C35.0888 34.5758 34.4075 34.5295 33.7263 34.3025C32.7713 34.0271 31.4526 33.2955 29.8164 29.2252C28.9292 27.0017 27.5953 23.5574 26.1715 19.8442L29.0891 11.8161C29.9062 9.52873 30.8152 7.79222 32.9071 7.51676C33.2707 7.47049 33.9081 7.42421 34.2257 7.42421C34.4535 7.42421 34.6353 7.33386 34.6353 7.14875C34.6353 6.87549 34.3615 6.78294 33.7723 6.78294C31.6366 6.78294 29.1351 6.91957 28.6357 6.91957C28.1363 6.91957 27.2842 6.78294 26.1934 6.78294C25.7838 6.78294 25.5121 6.87549 25.5121 7.14875C25.5121 7.33166 25.6479 7.42421 25.9678 7.42421H26.4234C27.1966 7.42421 28.1516 7.8363 28.1516 8.75083C28.1516 9.5728 27.9238 10.6702 27.5164 11.8139L25.4311 17.8917C22.6054 10.5116 19.6593 2.73257 19.2321 1.64615C18.6867 0.229183 18.5049 0 18.2311 0C17.9573 0 17.7777 0.27546 17.2301 1.78278L11.8087 16.7061L8.81874 8.75083C8.54493 8.0192 8.81874 7.60712 9.09254 7.51676C9.27435 7.47049 9.41016 7.38013 9.41016 7.19723C9.41016 6.92397 8.91074 6.92397 8.04551 6.8777C4.90879 6.78514 1.59026 6.78514 0.909034 6.78514C0.409612 6.78514 0 6.8777 0 7.15095C0 7.38014 0.181806 7.42641 0.455612 7.42641C0.909034 7.42641 1.59245 7.47269 2.27368 7.69967C3.22872 7.97513 4.54737 8.70675 6.18363 12.777C7.07076 15.0005 8.40475 18.4448 9.82854 22.158L6.91086 30.1861C6.09382 32.4735 5.18479 34.21 3.09291 34.4854C2.7293 34.5317 2.09188 34.5758 1.77426 34.5758C1.54646 34.5758 1.36465 34.6683 1.36465 34.8513C1.36465 35.1245 1.63845 35.2171 2.22768 35.2171C4.36337 35.2171 6.86486 35.0804 7.36428 35.0804C7.8637 35.0804 8.71579 35.2171 9.80663 35.2171C10.2162 35.2171 10.4879 35.1245 10.4879 34.8513C10.4879 34.6683 10.3521 34.5758 10.0322 34.5758H9.57663C8.80341 34.5758 7.84837 34.1637 7.84837 33.2492C7.84837 32.4272 8.07618 31.3298 8.4836 30.1861L10.5689 24.1083C13.3946 31.4884 16.3407 39.2674 16.7679 40.3539C17.3133 41.7708 17.4951 42 17.7689 42C18.0427 42 18.2223 41.7245 18.7699 40.2172L24.1913 25.2939L27.1813 33.2492C27.4551 33.9808 27.1813 34.3929 26.9075 34.4832C26.7256 34.5295 26.5898 34.6199 26.5898 34.8028C26.5898 35.076 27.0893 35.076 27.9545 35.1223C31.0912 35.2149 34.4097 35.2149 35.091 35.2149C35.5904 35.2149 36 35.1223 36 34.849C36 34.6199 35.8182 34.5736 35.5466 34.5736" fill="#0D1311"/>
</svg>
