<svg width="50" height="58" viewBox="0 0 50 58" fill="none" xmlns="http://www.w3.org/2000/svg">
<path d="M26.5288 48.8522C26.2124 49.7986 25.896 49.7986 25.5826 48.8522L20.9796 35.6357L17.3806 25.7271L23.4621 9.15085C23.7785 8.20442 24.0949 8.20442 24.4083 9.15085L29.0113 22.3674L32.6103 32.276L26.5288 48.8522ZM49.3672 47.7475C48.7344 47.7475 47.7883 47.6836 46.8421 47.3702C45.5157 46.9898 43.6842 45.9794 41.4116 40.3587C40.1795 37.2881 38.3267 32.5316 36.3493 27.4039L40.4016 16.3175C41.5364 13.1587 42.7989 10.7607 45.7043 10.3803C46.2093 10.3164 47.0946 10.2525 47.5357 10.2525C47.8521 10.2525 48.1047 10.1277 48.1047 9.87208C48.1047 9.49473 47.7244 9.36691 46.906 9.36691C43.9398 9.36691 40.4655 9.55559 39.7718 9.55559C39.0782 9.55559 37.8947 9.36691 36.3797 9.36691C35.8108 9.36691 35.4335 9.49473 35.4335 9.87208C35.4335 10.1247 35.6221 10.2525 36.0663 10.2525H36.6991C37.773 10.2525 39.0995 10.8216 39.0995 12.0845C39.0995 13.2196 38.7831 14.7351 38.2172 16.3145L35.321 24.7076C31.3964 14.516 27.3045 3.77355 26.7113 2.27326C25.9538 0.316491 25.7013 0 25.321 0C24.9407 0 24.6912 0.380396 23.9306 2.46193L16.401 23.0704L12.2482 12.0845C11.868 11.0741 12.2482 10.5051 12.6285 10.3803C12.881 10.3164 13.0697 10.1916 13.0697 9.93903C13.0697 9.56168 12.376 9.56168 11.1743 9.49777C6.81777 9.36996 2.2087 9.36996 1.26255 9.36996C0.568906 9.36996 0 9.49777 0 9.87512C0 10.1916 0.252508 10.2555 0.632794 10.2555C1.26255 10.2555 2.21174 10.3194 3.15789 10.6329C4.48433 11.0133 6.31579 12.0236 8.58838 17.6444C9.8205 20.7149 11.6733 25.4714 13.6507 30.5992L9.59842 41.6855C8.46364 44.8443 7.20109 47.2424 4.29571 47.6228C3.79069 47.6867 2.90538 47.7475 2.46425 47.7475C2.14785 47.7475 1.89534 47.8753 1.89534 48.1279C1.89534 48.5053 2.27563 48.6331 3.09401 48.6331C6.06024 48.6331 9.53453 48.4444 10.2282 48.4444C10.9218 48.4444 12.1053 48.6331 13.6203 48.6331C14.1892 48.6331 14.5665 48.5053 14.5665 48.1279C14.5665 47.8753 14.3779 47.7475 13.9337 47.7475H13.3009C12.227 47.7475 10.9005 47.1784 10.9005 45.9155C10.9005 44.7804 11.2169 43.2649 11.7828 41.6855L14.679 33.2924C18.6036 43.484 22.6955 54.2265 23.2887 55.7267C24.0462 57.6835 24.2988 58 24.679 58C25.0593 58 25.3088 57.6196 26.0694 55.5381L33.599 34.9296L37.7518 45.9155C38.132 46.9259 37.7518 47.4949 37.3715 47.6197C37.119 47.6836 36.9303 47.8084 36.9303 48.061C36.9303 48.4383 37.624 48.4383 38.8257 48.5022C43.1822 48.6301 47.7913 48.6301 48.7375 48.6301C49.4311 48.6301 50 48.5022 50 48.1249C50 47.8084 49.7475 47.7445 49.3702 47.7445" fill="white"/>
</svg>
