<svg width="353" height="61" viewBox="0 0 353 61" fill="none" xmlns="http://www.w3.org/2000/svg">
<g clip-path="url(#clip0_100_47)">
<path d="M68.3115 34.6836C67.6793 34.3639 67.6342 34.1812 67.6342 32.9389C67.6342 30.6462 67.8148 28.8193 67.86 28.0794C67.9051 27.577 67.9954 27.3486 68.2212 27.3486C68.4921 27.3486 68.5373 27.4856 68.5373 27.851C68.5373 28.2621 68.5373 28.9015 68.6728 29.5409C69.3501 32.9298 72.3394 34.2177 75.3739 34.2177C79.7269 34.2177 81.8492 31.0572 81.8492 28.125C81.8492 24.9645 80.5397 23.1285 76.6382 19.8766L74.5972 18.1776C69.7926 14.195 68.7089 11.3541 68.7089 8.23929C68.7179 3.34322 72.3394 0 78.0922 0C79.8623 0 81.1719 0.182689 82.3007 0.456724C83.1587 0.639413 83.52 0.685085 83.8902 0.685085C84.2605 0.685085 84.3418 0.77643 84.3418 1.00479C84.3418 1.23315 84.1612 2.74948 84.1612 5.86433C84.1612 6.59509 84.0709 6.9148 83.8451 6.9148C83.5741 6.9148 83.529 6.68643 83.4838 6.32105C83.4387 5.77299 83.1677 4.5307 82.8968 4.0283C82.6259 3.52591 81.3976 1.59853 77.2343 1.59853C74.1095 1.59853 71.6621 3.57158 71.6621 6.9148C71.6621 9.52725 72.8361 11.1715 77.1891 14.6152L78.4535 15.6199C83.7999 19.8857 85.0643 22.7174 85.0643 26.3895C85.0643 28.2712 84.3418 31.7514 81.217 33.9894C79.2663 35.3687 76.8279 35.9167 74.3804 35.9167C72.2491 35.9167 70.1719 35.597 68.3115 34.6836Z" fill="black"/>
<path d="M136.379 21.9867C136.379 26.3895 136.379 30.0067 136.605 31.925C136.74 33.2586 137.011 34.2634 138.375 34.4461C139.007 34.5374 140.01 34.6288 140.416 34.6288C140.687 34.6288 140.777 34.7658 140.777 34.9028C140.777 35.1312 140.552 35.2682 140.055 35.2682C137.562 35.2682 134.708 35.1312 134.483 35.1312C134.257 35.1312 131.403 35.2682 130.039 35.2682C129.543 35.2682 129.317 35.1768 129.317 34.9028C129.317 34.7658 129.407 34.6288 129.678 34.6288C130.084 34.6288 130.626 34.5374 131.042 34.4461C131.945 34.2634 132.171 33.2586 132.36 31.925C132.586 29.9976 132.586 26.3804 132.586 21.9867V2.61246L125.885 2.7038C123.076 2.74948 121.993 3.06918 121.27 4.17445C120.773 4.95088 120.638 5.27059 120.502 5.5903C120.367 5.95568 120.232 6.04702 120.051 6.04702C119.915 6.04702 119.825 5.91 119.825 5.63597C119.825 5.17925 120.728 1.23315 120.819 0.867775C120.909 0.593741 121.089 0 121.27 0C121.586 0 122.038 0.456724 123.266 0.548068C124.575 0.685085 126.3 0.77643 126.842 0.77643H143.83C145.275 0.77643 146.322 0.685085 147.045 0.548068C147.722 0.456724 148.129 0.319707 148.318 0.319707C148.544 0.319707 148.544 0.593741 148.544 0.867775C148.544 2.23795 148.409 5.39847 148.409 5.91C148.409 6.32105 148.273 6.50374 148.093 6.50374C147.867 6.50374 147.776 6.36673 147.731 5.72731L147.686 5.22492C147.551 3.84561 146.467 2.79515 142.114 2.7038L136.406 2.61246V21.9867H136.379Z" fill="black"/>
<path d="M191.785 17.9127C191.785 18.1411 191.876 18.3238 192.101 18.4608C192.779 18.8718 194.865 19.1915 196.861 19.1915C197.944 19.1915 199.218 19.0545 200.256 18.3238C201.846 17.2276 203.02 14.7522 203.02 11.272C203.02 5.54464 200.031 2.11007 195.181 2.11007C193.817 2.11007 192.598 2.24709 192.146 2.38411C191.921 2.47545 191.785 2.65814 191.785 2.93218V17.9127ZM188.164 13.9301C188.164 6.78692 188.164 5.49896 188.073 4.03745C187.983 2.47545 187.622 1.7447 186.123 1.42499C185.761 1.33364 184.994 1.28797 184.578 1.28797C184.398 1.28797 184.217 1.19663 184.217 1.01394C184.217 0.739904 184.443 0.64856 184.94 0.64856C186.981 0.64856 189.834 0.785577 190.06 0.785577C190.557 0.785577 193.998 0.64856 195.407 0.64856C198.261 0.64856 201.295 0.922594 203.697 2.66728C204.826 3.48938 206.822 5.73646 206.822 8.89699C206.822 12.2859 205.422 15.6748 201.34 19.4838C205.052 24.2977 208.132 28.3717 210.76 31.2125C213.207 33.825 215.149 34.3274 216.287 34.51C217.145 34.6471 217.777 34.6471 218.048 34.6471C218.274 34.6471 218.454 34.7841 218.454 34.9211C218.454 35.1951 218.183 35.2865 217.37 35.2865H214.155C211.618 35.2865 210.489 35.0581 209.306 34.4187C207.355 33.3682 205.774 31.1212 203.192 27.6866C201.286 25.1655 199.155 22.0963 198.251 20.9088C198.071 20.7261 197.935 20.6348 197.664 20.6348L192.092 20.5434C191.866 20.5434 191.776 20.6805 191.776 20.9088V22.005C191.776 26.3986 191.776 30.025 192.002 31.9433C192.137 33.2678 192.408 34.2817 193.772 34.4644C194.404 34.5557 195.407 34.6471 195.813 34.6471C196.084 34.6471 196.174 34.7841 196.174 34.9211C196.174 35.1495 195.949 35.2865 195.452 35.2865C192.959 35.2865 190.105 35.1495 189.88 35.1495C189.834 35.1495 186.981 35.2865 185.626 35.2865C185.129 35.2865 184.903 35.1951 184.903 34.9211C184.903 34.7841 184.994 34.6471 185.265 34.6471C185.671 34.6471 186.213 34.5557 186.628 34.4644C187.532 34.2817 187.757 33.2678 187.938 31.9433C188.164 30.0159 188.164 26.3986 188.164 22.005V13.9301Z" fill="black"/>
<path d="M347.247 29.413C347.428 31.0663 347.744 33.624 349.695 34.2725C351.013 34.6836 352.187 34.6836 352.639 34.6836C352.865 34.6836 353 34.7293 353 34.9119C353 35.186 352.594 35.323 352.052 35.323C351.058 35.323 346.163 35.2773 344.484 35.1403C343.445 35.049 343.219 34.9119 343.219 34.6836C343.219 34.5009 343.31 34.4095 343.535 34.3639C343.761 34.3182 343.806 33.5418 343.716 32.7197L341.539 8.94265H341.404L330.305 32.7653C329.356 34.7841 329.221 35.1951 328.806 35.1951C328.489 35.1951 328.264 34.7384 327.406 33.0851C326.232 30.838 322.33 22.9184 322.104 22.4525C321.698 21.6304 316.623 10.6325 316.126 9.39937H315.945L314.13 30.6553C314.085 31.386 314.085 32.2081 314.085 32.9937C314.085 33.6788 314.582 34.2725 315.259 34.4187C316.027 34.6014 316.704 34.647 316.975 34.647C317.155 34.647 317.336 34.7384 317.336 34.8754C317.336 35.1951 317.065 35.2865 316.523 35.2865C314.843 35.2865 312.676 35.1494 312.315 35.1494C311.908 35.1494 309.732 35.2865 308.513 35.2865C308.061 35.2865 307.745 35.1951 307.745 34.8754C307.745 34.7384 307.971 34.647 308.197 34.647C308.558 34.647 308.874 34.647 309.551 34.51C311.041 34.236 311.186 32.4456 311.366 30.7101L314.627 0.840371C314.672 0.337975 314.852 0.0182689 315.123 0.0182689C315.394 0.0182689 315.575 0.200958 315.801 0.703354L329.664 29.5226L342.994 0.730758C343.174 0.319706 343.355 0 343.671 0C343.987 0 344.122 0.365379 344.213 1.23315L347.247 29.4039V29.413Z" fill="black"/>
<path d="M34.0654 34.6379C33.6139 34.6379 32.9366 34.5922 32.2502 34.3639C31.3019 34.0898 29.9834 33.3591 28.3578 29.276C25.5942 22.3155 18.4777 3.38889 17.8004 1.65334C17.2585 0.228362 17.0779 0 16.8069 0C16.536 0 16.3554 0.274034 15.8135 1.79036L5.52706 30.2351C4.71425 32.5279 3.80211 34.2634 1.72495 34.5374C1.3637 34.5831 0.731524 34.6288 0.415434 34.6288C0.189656 34.6288 0.0090332 34.7201 0.0090332 34.9028C0.0090332 35.1768 0.279967 35.2682 0.866991 35.2682C2.99834 35.2682 5.4819 35.1312 5.98765 35.1312C6.49339 35.1312 8.43508 35.2682 9.51882 35.2682C9.92522 35.2682 10.1962 35.1768 10.1962 34.9028C10.1962 34.7201 10.0607 34.6288 9.7446 34.6288H9.29304C8.52539 34.6288 7.56809 34.2177 7.56809 33.3043C7.56809 32.4822 7.79387 31.3769 8.20027 30.2351L10.0697 24.6448L12.6797 16.8348L15.7142 7.41719C15.94 6.73211 16.1657 6.73211 16.3915 7.41719L19.4531 16.2228L22.334 24.2429L25.7207 33.3043C25.9916 34.035 25.7207 34.4461 25.4497 34.5374C25.2691 34.5831 25.1337 34.6745 25.1337 34.8571C25.1337 35.1312 25.6304 35.1312 26.4974 35.1768C29.6221 35.2682 32.9275 35.2682 33.6049 35.2682C34.1016 35.2682 34.508 35.1768 34.508 34.9028C34.508 34.6745 34.3274 34.6288 34.0564 34.6288" fill="black"/>
<path d="M243.777 0.776376C244.229 0.776376 244.906 0.822048 245.593 1.05041C246.541 1.32444 247.86 2.06434 249.485 6.13831C252.249 13.0988 259.356 32.0254 260.043 33.7609C260.584 35.1859 260.765 35.4143 261.036 35.4143C261.307 35.4143 261.488 35.1403 262.029 33.6239L272.316 5.17006C273.129 2.8773 274.041 1.14175 276.118 0.867721C276.479 0.822048 277.111 0.776376 277.437 0.776376C277.662 0.776376 277.843 0.685031 277.843 0.502342C277.843 0.228308 277.572 0.136963 276.985 0.136963C274.854 0.136963 272.37 0.27398 271.864 0.27398C271.359 0.27398 269.417 0.136963 268.333 0.136963C267.927 0.136963 267.656 0.228308 267.656 0.502342C267.656 0.685031 267.791 0.776376 268.107 0.776376H268.559C269.327 0.776376 270.284 1.18743 270.284 2.11001C270.284 2.93211 270.058 4.03738 269.652 5.17919L267.782 10.7695L265.172 18.5795L262.138 27.988C261.912 28.6731 261.686 28.6731 261.46 27.988L258.399 19.1915L255.518 11.1714L252.131 2.11001C251.86 1.37925 252.131 0.9682 252.402 0.876855C252.583 0.831183 252.718 0.739838 252.718 0.557149C252.718 0.283114 252.222 0.283114 251.355 0.237442C248.23 0.146097 244.924 0.146097 244.247 0.146097C243.75 0.146097 243.344 0.237442 243.344 0.511476C243.344 0.739838 243.525 0.78551 243.796 0.78551" fill="black"/>
<path d="M1.43595 51.7285V59.1274H3.93758V60.3515H0.144501V51.7285H1.43595Z" fill="black"/>
<path d="M14.9646 51.7285V56.9169C14.9646 57.6568 15.082 58.1957 15.3258 58.5428C15.6871 59.0361 16.1838 59.2827 16.834 59.2827C17.4843 59.2827 17.99 59.0361 18.3422 58.5428C18.5861 58.214 18.7035 57.6659 18.7035 56.9169V51.7285H19.9859V57.2731C19.9859 58.1775 19.7059 58.9265 19.146 59.5202C18.5138 60.1779 17.7462 60.4976 16.825 60.4976C15.9038 60.4976 15.1362 60.1688 14.513 59.5202C13.9531 58.9356 13.6731 58.1866 13.6731 57.2731V51.7285H14.9555H14.9646Z" fill="black"/>
<path d="M32.3315 55.8482L29.9924 51.7285H31.4464L33.0811 54.6515L34.7879 51.7285H36.26L33.8036 55.8482L36.3865 60.3423H34.9415L33.054 57.0448L31.1123 60.3423H29.6583L32.3315 55.8482Z" fill="black"/>
<path d="M47.3412 51.7285V56.9169C47.3412 57.6568 47.4586 58.1957 47.7025 58.5428C48.0637 59.0361 48.5604 59.2827 49.2107 59.2827C49.8609 59.2827 50.3667 59.0361 50.7189 58.5428C50.9627 58.214 51.0801 57.6659 51.0801 56.9169V51.7285H52.3625V57.2731C52.3625 58.1775 52.0826 58.9265 51.5226 59.5202C50.8905 60.1779 50.1228 60.4976 49.2016 60.4976C48.2805 60.4976 47.5128 60.1688 46.8897 59.5202C46.3297 58.9356 46.0498 58.1866 46.0498 57.2731V51.7285H47.3322H47.3412Z" fill="black"/>
<path d="M64.2114 55.6929H64.6178C65.837 55.6929 66.4421 55.227 66.4421 54.2771C66.4421 53.4001 65.855 52.9526 64.6629 52.9526H64.2023V55.6838L64.2114 55.6929ZM65.8099 56.6794L68.447 60.3515H66.8756L64.4462 56.8256H64.2114V60.3515H62.929V51.7377H64.4372C65.566 51.7377 66.3789 51.9478 66.8756 52.3771C67.4265 52.8521 67.7064 53.4824 67.7064 54.2679C67.7064 54.8799 67.5348 55.4006 67.1917 55.8391C66.8485 56.2775 66.3879 56.5607 65.8279 56.6794" fill="black"/>
<path d="M79.9707 56.6246L77.1891 51.7285H78.6702L80.6209 55.1722L82.5717 51.7285H84.0528L81.2622 56.6246V60.3515H79.9707V56.6246Z" fill="black"/>
<path d="M100.851 55.6472H101.329C102.512 55.6472 103.099 55.1905 103.099 54.2679C103.099 53.3453 102.494 52.9343 101.275 52.9343H100.851V55.6472ZM100.851 56.853V60.3515H99.5683V51.7377H101.022C101.736 51.7377 102.278 51.7925 102.639 51.893C103.009 51.9934 103.334 52.1853 103.614 52.4593C104.102 52.9434 104.346 53.5554 104.346 54.2862C104.346 55.0718 104.084 55.702 103.56 56.1588C103.036 56.6155 102.332 56.853 101.447 56.853H100.851Z" fill="black"/>
<path d="M115.472 55.6929H115.879C117.098 55.6929 117.703 55.227 117.703 54.2771C117.703 53.4001 117.107 52.9526 115.924 52.9526H115.463V55.6838L115.472 55.6929ZM117.071 56.6794L119.708 60.3515H118.136L115.707 56.8256H115.472V60.3515H114.19V51.7377H115.698C116.827 51.7377 117.64 51.9478 118.136 52.3771C118.687 52.8521 118.967 53.4824 118.967 54.2679C118.967 54.8799 118.796 55.4006 118.452 55.8391C118.109 56.2775 117.649 56.5607 117.089 56.6794" fill="black"/>
<path d="M130.798 51.7285H129.516V60.3423H130.798V51.7285Z" fill="black"/>
<path d="M141.798 51.7285L144.155 57.7025L146.548 51.7285H147.957L144.128 61L140.398 51.7285H141.798Z" fill="black"/>
<path d="M162.019 57.0357L160.754 54.1035L159.427 57.0357H162.01H162.019ZM162.542 58.2597H158.894L157.946 60.3515H156.564L160.781 51.1987L164.845 60.3515H163.436L162.542 58.2597Z" fill="black"/>
<path d="M176.784 52.9525V60.3423H175.493V52.9525H173.533V51.7285H178.735V52.9525H176.784Z" fill="black"/>
<path d="M193.104 52.9525H189.69V55.0261H193.004V56.2501H189.69V59.1274H193.104V60.3423H188.408V51.7285H193.104V52.9525Z" fill="black"/>
<path d="M210.606 55.6929H211.012C212.232 55.6929 212.837 55.227 212.837 54.2771C212.837 53.4001 212.25 52.9526 211.058 52.9526H210.597V55.6838L210.606 55.6929ZM212.205 56.6794L214.842 60.3515H213.27L210.841 56.8256H210.606V60.3515H209.324V51.7377H210.832C211.961 51.7377 212.774 51.9478 213.27 52.3771C213.821 52.8521 214.101 53.4824 214.101 54.2679C214.101 54.8799 213.93 55.4006 213.586 55.8391C213.243 56.2775 212.783 56.5607 212.223 56.6794" fill="black"/>
<path d="M229.346 52.9525H225.932V55.0261H229.246V56.2501H225.932V59.1274H229.346V60.3423H224.65V51.7285H229.346V52.9525Z" fill="black"/>
<path d="M244.373 53.0164L243.326 53.6376C243.127 53.2905 242.947 53.0712 242.766 52.9708C242.585 52.852 242.341 52.7881 242.052 52.7881C241.691 52.7881 241.402 52.8885 241.167 53.0986C240.933 53.2996 240.815 53.5554 240.815 53.8568C240.815 54.277 241.122 54.615 241.745 54.8707L242.594 55.2178C243.29 55.501 243.795 55.8481 244.112 56.25C244.428 56.6611 244.59 57.1543 244.59 57.7481C244.59 58.5428 244.328 59.1913 243.805 59.712C243.281 60.2327 242.63 60.4884 241.845 60.4884C241.059 60.4884 240.499 60.2692 240.011 59.8216C239.533 59.374 239.244 58.7529 239.126 57.949L240.427 57.6567C240.49 58.1591 240.589 58.5154 240.734 58.7072C240.996 59.0817 241.384 59.2644 241.89 59.2644C242.287 59.2644 242.621 59.1274 242.883 58.8534C243.145 58.5793 243.281 58.2322 243.281 57.8212C243.281 57.6567 243.263 57.5015 243.208 57.3644C243.163 57.2274 243.091 57.0995 242.992 56.9808C242.892 56.862 242.766 56.7524 242.612 56.6519C242.459 56.5515 242.269 56.451 242.062 56.3596L241.24 56.0125C240.075 55.5193 239.488 54.7885 239.488 53.8294C239.488 53.1808 239.731 52.6419 240.219 52.2035C240.707 51.765 241.321 51.5458 242.043 51.5458C243.028 51.5458 243.795 52.0299 244.346 52.9982" fill="black"/>
<path d="M255.96 51.7285H254.678V60.3423H255.96V51.7285Z" fill="black"/>
<path d="M267.818 59.1275H268.396C268.974 59.1275 269.453 59.0635 269.832 58.9448C270.212 58.8169 270.564 58.6068 270.871 58.3236C271.503 57.739 271.819 56.9809 271.819 56.04C271.819 55.0992 271.503 54.3319 270.88 53.7381C270.32 53.2175 269.489 52.9526 268.396 52.9526H267.818V59.1183V59.1275ZM266.536 60.3515V51.7377H268.324C269.182 51.7377 269.859 51.8199 270.356 51.9934C270.889 52.1579 271.377 52.441 271.81 52.8429C272.686 53.6559 273.129 54.7155 273.129 56.04C273.129 57.3645 272.668 58.4332 271.756 59.2553C271.295 59.6664 270.817 59.9496 270.311 60.1048C269.841 60.2693 269.173 60.3423 268.306 60.3423H266.545L266.536 60.3515Z" fill="black"/>
<path d="M287.958 52.9525H284.544V55.0261H287.858V56.2501H284.544V59.1274H287.958V60.3423H283.262V51.7285H287.958V52.9525Z" fill="black"/>
<path d="M298.172 60.3515V51.1439L304.385 57.7207V51.7285H305.668V60.8721L299.454 54.3136V60.3515H298.172Z" fill="black"/>
<path d="M322.529 52.1944V53.7381C321.788 53.1078 321.021 52.7973 320.226 52.7973C319.35 52.7973 318.609 53.117 318.013 53.7472C317.408 54.3775 317.11 55.154 317.11 56.0674C317.11 56.9809 317.408 57.7299 318.013 58.351C318.618 58.9722 319.359 59.2827 320.226 59.2827C320.678 59.2827 321.066 59.2097 321.382 59.0635C321.563 58.9904 321.743 58.89 321.933 58.7621C322.123 58.6342 322.321 58.4789 322.529 58.3054V59.8765C321.797 60.2967 321.021 60.5068 320.208 60.5068C318.989 60.5068 317.95 60.0774 317.092 59.2188C316.234 58.351 315.81 57.3097 315.81 56.0857C315.81 54.9895 316.171 54.0121 316.885 53.1535C317.77 52.103 318.908 51.5732 320.307 51.5732C321.075 51.5732 321.806 51.7833 322.529 52.2035" fill="black"/>
<path d="M337.376 52.9525H333.962V55.0261H337.277V56.2501H333.962V59.1274H337.376V60.3423H332.671V51.7285H337.376V52.9525Z" fill="black"/>
<path d="M352.404 53.0164L351.356 53.6376C351.158 53.2905 350.977 53.0712 350.796 52.9708C350.616 52.852 350.372 52.7881 350.083 52.7881C349.722 52.7881 349.433 52.8885 349.198 53.0986C348.963 53.2996 348.846 53.5554 348.846 53.8568C348.846 54.277 349.153 54.615 349.776 54.8707L350.625 55.2178C351.32 55.501 351.826 55.8481 352.142 56.25C352.458 56.6611 352.621 57.1543 352.621 57.7481C352.621 58.5428 352.359 59.1913 351.835 59.712C351.311 60.2327 350.661 60.4884 349.875 60.4884C349.09 60.4884 348.53 60.2692 348.042 59.8216C347.563 59.374 347.274 58.7529 347.157 57.949L348.457 57.6567C348.521 58.1591 348.62 58.5154 348.764 58.7072C349.026 59.0817 349.415 59.2644 349.92 59.2644C350.318 59.2644 350.652 59.1274 350.914 58.8534C351.176 58.5793 351.311 58.2322 351.311 57.8212C351.311 57.6567 351.293 57.5015 351.239 57.3644C351.194 57.2274 351.122 57.0995 351.022 56.9808C350.923 56.862 350.796 56.7524 350.643 56.6519C350.489 56.5515 350.3 56.451 350.092 56.3596L349.27 56.0125C348.105 55.5193 347.518 54.7885 347.518 53.8294C347.518 53.1808 347.762 52.6419 348.25 52.2035C348.737 51.765 349.351 51.5458 350.074 51.5458C351.058 51.5458 351.826 52.0299 352.377 52.9982" fill="black"/>
</g>
<defs>
<clipPath id="clip0_100_47">
<rect width="353" height="61" fill="white"/>
</clipPath>
</defs>
</svg>
