<svg width="316" height="312" viewBox="0 0 316 312" fill="none" xmlns="http://www.w3.org/2000/svg">
<g clip-path="url(#clip0_198_30)">
<path d="M43.0426 194.628L25.6591 223.036L7.97513 194.628H0L22.1917 230.634V263.546H29.1266V230.634L51.0177 194.628H43.0426Z" fill="#004129"/>
<path d="M106.659 194.628L138.837 263.569H131.439L120.575 240.912H90.8009L80.0287 263.569H72.3541L105.017 194.628H106.659ZM105.803 209.224L93.8753 234.191H117.523L105.803 209.224Z" fill="#004129"/>
<path d="M173.904 194.628H189.762C196.974 194.628 202.453 195.113 205.805 196.36C212.924 199.039 217.132 205.182 217.132 212.966C217.132 216.43 216.646 218.439 215.12 221.511C211.56 228.717 204.649 231.488 193.206 231.488L218.102 263.545H209.549L184.769 231.488H180.839V263.545H173.927V194.604L173.904 194.628ZM180.816 201.348V224.767C184.653 224.767 188.606 224.86 192.258 224.86C198.222 224.86 202.823 224.282 205.805 221.881C208.301 219.871 209.942 216.499 209.942 212.942C209.942 206.222 205.319 201.325 194.963 201.325H180.839L180.816 201.348Z" fill="#004129"/>
<path d="M257.77 194.628H274.784C282.366 194.628 289.393 195.02 296.212 197.792C308.603 202.78 316 214.698 316 229.849C316 249.526 304.095 263.545 281.88 263.545H257.77V194.604V194.628ZM274.876 256.824C287.937 256.824 296.582 255.67 302.731 248.187C306.661 243.383 308.788 237.147 308.788 229.941C308.788 222.735 306.869 216.684 303.032 211.695C296.49 203.15 286.689 201.325 271.709 201.325H264.705V256.824H274.899H274.876Z" fill="#004129"/>
<path d="M194.986 0L127.325 62.266L122.378 144.302L117.963 62.266L50.3011 0L122.655 52.4273L194.986 0Z" fill="#004129"/>
<path d="M122.909 144.302L191.403 82.8905L195.518 0L199.124 82.8905L267.618 144.302L195.263 90.9971L122.909 144.302Z" fill="#F1C306"/>
<path d="M13.1532 312C10.8878 312 9.38522 311.422 7.95201 309.99L9.06159 308.882C10.3099 310.129 11.4888 310.545 13.1994 310.545C15.4186 310.545 16.7824 309.505 16.7824 307.75C16.7824 306.965 16.5513 306.272 16.0658 305.856C15.5804 305.44 15.1874 305.302 14.101 305.14L12.3441 304.863C11.1421 304.678 10.2174 304.286 9.54704 303.708C8.7842 303.015 8.39122 302.092 8.39122 300.867C8.39122 298.304 10.2405 296.595 13.2456 296.595C15.1874 296.595 16.4588 297.08 17.7533 298.258L16.7131 299.297C15.7884 298.442 14.7713 298.004 13.1763 298.004C11.1652 298.004 9.98625 299.135 9.98625 300.821C9.98625 301.56 10.1943 302.161 10.6566 302.553C11.1189 302.946 11.9049 303.246 12.6909 303.385L14.3552 303.639C15.7884 303.847 16.4819 304.147 17.1292 304.701C17.9614 305.394 18.4006 306.433 18.4006 307.704C18.4006 310.36 16.3201 312 13.1763 312" fill="#004129"/>
<path d="M38.0263 311.885L36.8243 308.466H30.213L29.011 311.885H27.2773L32.8483 296.757H34.2121L39.7601 311.885H38.0263ZM33.5418 299.066L30.6985 307.058H36.362L33.5649 299.066H33.5418Z" fill="#004129"/>
<path d="M51.2489 296.757H49.6307V311.885H51.2489V296.757Z" fill="#004129"/>
<path d="M72.7239 311.885L64.7026 299.736V311.885H63.0844V296.757H64.6101L72.6546 308.836V296.757H74.2727V311.885H72.7239Z" fill="#004129"/>
<path d="M90.5235 298.189V311.885H88.9285V298.189H84.5364V296.757H94.9156V298.189H90.5235Z" fill="#004129"/>
<path d="M123.557 305.649H119.534V311.885H117.916V296.757H123.557C126.331 296.757 128.226 298.489 128.226 301.191C128.226 303.893 126.308 305.649 123.557 305.649ZM123.418 298.189H119.534V304.217H123.418C125.314 304.217 126.631 303.201 126.631 301.191C126.631 299.182 125.314 298.189 123.418 298.189Z" fill="#004129"/>
<path d="M138.767 311.885V296.757H148.176V298.189H140.385V303.524H147.02V304.979H140.385V310.429H148.176V311.885H138.767Z" fill="#004129"/>
<path d="M163.409 298.189V311.885H161.791V298.189H157.422V296.757H167.801V298.189H163.409Z" fill="#004129"/>
<path d="M178.065 311.885V296.757H187.473V298.189H179.683V303.524H186.317V304.979H179.683V310.429H187.473V311.885H178.065Z" fill="#004129"/>
<path d="M206.96 311.885L203.516 305.164H199.887V311.885H198.269V296.757H204.071C206.706 296.757 208.555 298.35 208.555 300.96C208.555 303.177 207.215 304.609 205.25 305.025L208.833 311.885H206.937H206.96ZM203.909 298.189H199.864V303.732H203.909C205.666 303.732 206.937 302.808 206.937 300.96C206.937 299.113 205.689 298.166 203.909 298.166" fill="#004129"/>
<path d="M223.558 312C221.269 312 219.79 311.422 218.357 309.99L219.466 308.882C220.715 310.129 221.893 310.545 223.604 310.545C225.823 310.545 227.187 309.505 227.187 307.75C227.187 306.965 226.956 306.272 226.471 305.856C225.985 305.44 225.592 305.302 224.483 305.14L222.726 304.863C221.524 304.678 220.599 304.286 219.929 303.708C219.166 303.015 218.773 302.092 218.773 300.867C218.773 298.304 220.622 296.595 223.627 296.595C225.569 296.595 226.84 297.08 228.135 298.258L227.095 299.297C226.17 298.442 225.153 298.004 223.558 298.004C221.547 298.004 220.368 299.135 220.368 300.821C220.368 301.56 220.576 302.161 221.038 302.553C221.501 302.946 222.286 303.246 223.072 303.385L224.737 303.639C226.17 303.847 226.863 304.147 227.511 304.701C228.343 305.394 228.782 306.433 228.782 307.704C228.782 310.36 226.702 312 223.558 312Z" fill="#004129"/>
<path d="M245.518 311.885H239.624V296.757H245.31C247.946 296.757 249.772 298.258 249.772 300.799C249.772 302.392 248.824 303.639 247.553 304.101C248.986 304.632 250.026 305.88 250.026 307.704C250.026 310.453 248.2 311.885 245.518 311.885ZM245.195 298.189H241.242V303.431H245.195C246.882 303.431 248.177 302.6 248.177 300.799C248.177 298.997 246.882 298.189 245.195 298.189ZM245.357 304.887H241.219V310.429H245.357C247.229 310.429 248.385 309.344 248.385 307.658C248.385 305.972 247.206 304.887 245.357 304.887Z" fill="#004129"/>
<path d="M266.323 312C263.249 312 261.053 309.898 261.053 306.872V296.733H262.671V306.734C262.671 309.02 264.104 310.545 266.323 310.545C268.542 310.545 269.999 309.043 269.999 306.734V296.733H271.617V306.872C271.617 309.898 269.374 312 266.323 312Z" fill="#004129"/>
<path d="M291.936 311.885L288.492 305.164H284.862V311.885H283.244V296.757H289.046C291.682 296.757 293.531 298.35 293.531 300.96C293.531 303.177 292.19 304.609 290.225 305.025L293.808 311.885H291.913H291.936ZM288.885 298.189H284.839V303.732H288.885C290.641 303.732 291.913 302.808 291.913 300.96C291.913 299.113 290.665 298.166 288.885 298.166" fill="#004129"/>
<path d="M313.388 310.268C312.325 311.423 310.891 312.023 309.343 312.023C307.794 312.023 306.499 311.469 305.482 310.453C304.049 309.021 304.049 307.543 304.049 304.332C304.049 301.122 304.049 299.644 305.482 298.212C306.499 297.196 307.84 296.642 309.343 296.642C312.232 296.642 314.197 298.512 314.636 301.168H313.018C312.602 299.251 311.238 298.097 309.343 298.097C308.349 298.097 307.378 298.489 306.73 299.182C305.783 300.152 305.667 301.168 305.667 304.356C305.667 307.543 305.783 308.559 306.73 309.529C307.401 310.222 308.349 310.591 309.343 310.591C310.452 310.591 311.515 310.153 312.209 309.298C312.833 308.559 313.064 307.728 313.064 306.55V305.395H309.343V303.963H314.682V306.365C314.682 308.097 314.313 309.275 313.388 310.268Z" fill="#004129"/>
</g>
<defs>
<clipPath id="clip0_198_30">
<rect width="316" height="312" fill="white"/>
</clipPath>
</defs>
</svg>
